<?xml version="1.0" encoding="UTF-8" standalone="no"?>
<svg
   xmlns:dc="http://purl.org/dc/elements/1.1/"
   xmlns:cc="http://creativecommons.org/ns#"
   xmlns:rdf="http://www.w3.org/1999/02/22-rdf-syntax-ns#"
   xmlns:svg="http://www.w3.org/2000/svg"
   xmlns="http://www.w3.org/2000/svg"
   xmlns:sodipodi="http://sodipodi.sourceforge.net/DTD/sodipodi-0.dtd"
   xmlns:inkscape="http://www.inkscape.org/namespaces/inkscape"
   height="200"
   width="800"
   version="1.1"
   viewBox="0 0 800 200"
   id="Layer_1"
   sodipodi:docname="buy-me-a-coffee.svg"
   inkscape:version="0.92.3 (2405546, 2018-03-11)">
  <sodipodi:namedview
     pagecolor="#ffffff"
     bordercolor="#666666"
     borderopacity="1"
     objecttolerance="10"
     gridtolerance="10"
     guidetolerance="10"
     inkscape:pageopacity="0"
     inkscape:pageshadow="2"
     inkscape:window-width="1920"
     inkscape:window-height="1025"
     id="namedview42"
     showgrid="false"
     inkscape:zoom="1.0884261"
     inkscape:cx="392.88508"
     inkscape:cy="174.5886"
     inkscape:window-x="0"
     inkscape:window-y="27"
     inkscape:window-maximized="1"
     inkscape:current-layer="Layer_1" />
  <metadata
     id="metadata3789">
    <rdf:RDF>
      <cc:Work
         rdf:about="">
        <dc:format>image/svg+xml</dc:format>
        <dc:type
           rdf:resource="http://purl.org/dc/dcmitype/StillImage" />
        <dc:title />
      </cc:Work>
    </rdf:RDF>
  </metadata>
  <defs
     id="defs3787" />
  <rect
     ry="18.397734"
     y="0"
     x="0"
     height="200"
     width="800"
     id="Shape"
     style="fill:#88c0d0;fill-opacity:1;stroke:none;stroke-width:4.91929054;stroke-miterlimit:4;stroke-dasharray:none;stroke-opacity:1" />
  <g
     id="Content"
     transform="translate(18.281631,19.237439)">
    <path
       inkscape:connector-curvature="0"
       id="Combined-Shape"
       class="st0"
       d="m 157.83087,27.062586 v -3 c 0,-1.7 -1.4,-3.1 -3.1,-3.1 h -1 c -1.7,0 -3.1,1.4 -3.1,3.1 v 3.1 h -3.1 c -1.7,0 -3.1,1.4 -3.1,3.1 v 1 c 0,1.7 1.4,3.1 3.1,3.1 h 3.1 v 3.1 c 0,1.7 1.4,3.1 3.1,3.1 h 1 c 1.7,0 3.1,-1.4 3.1,-3.1 v -3.1 h 3.1 c 1.7,0 3.1,-1.4 3.1,-3.1 v -1 c 0,-1.7 -1.4,-3.1 -3.1,-3.1 h -3.1 z"
       style="fill:#25657e;fill-opacity:1" />
    <path
       inkscape:connector-curvature="0"
       id="Fill-1"
       class="st1"
       d="m 91.530869,42.862586 -32.3,-0.2 15.9,100.600004 h 3.4 31.700001 3.4 l 15.9,-100.600004 z"
       style="fill:#173f4f;fill-opacity:1" />
    <path
       inkscape:connector-curvature="0"
       style="fill:#ffffff;fill-opacity:0.94117647;stroke:none;stroke-width:1px;stroke-linecap:butt;stroke-linejoin:miter;stroke-opacity:1"
       d="m 53.485869,42.662586 15.8,100.600004 26.734516,0.0111 12.125775,-100.560342 z"
       id="Fill-1.5" />
    <path
       inkscape:connector-curvature="0"
       id="Fill-2"
       class="st0"
       d="m 91.530869,42.862586 -32.3,-0.2 15.9,100.600004 h 3.4 23.600001 3.5 l 15.8,-100.600004 z"
       style="fill:#25657e;fill-opacity:1" />
    <path
       inkscape:connector-curvature="0"
       id="Fill-3"
       class="st2"
       d="m 50.030869,42.662586 h 83.200001 v -9.3 H 50.030869 Z"
       style="fill:#ffffff;fill-opacity:1" />
    <path
       inkscape:connector-curvature="0"
       id="Stroke-4"
       class="st3"
       d="m 50.030869,42.662586 h 83.200001 v -9.3 H 50.030869 Z"
       style="fill:none;stroke:#2e3440;stroke-width:4.31899977;stroke-miterlimit:4;stroke-dasharray:none;stroke-opacity:1" />
    <path
       inkscape:connector-curvature="0"
       id="Fill-6"
       class="st2"
       d="m 117.13087,18.262586 h -19.900001 -11.8 -19.8 l -6.1,14 h 25.9 11.8 25.900001 z"
       style="fill:#ffffff;fill-opacity:1" />
    <g
       id="Group-11"
       transform="translate(14.385869,15.162586)">
      <path
         inkscape:connector-curvature="0"
         id="Stroke-7"
         class="st4"
         d="M 102.7,3.1 H 82.9 71.1 51.2 l -6,14 h 25.9 11.8 25.9 z"
         style="fill:none;stroke:#2e3440;stroke-width:4.31899977;stroke-miterlimit:4;stroke-dasharray:none;stroke-opacity:1" />
      <path
         inkscape:connector-curvature="0"
         id="Stroke-9"
         class="st3"
         d="m 77.1,27.7 -38,-0.2 15.8,100.6 h 3.5 37.4 3.5 L 115.1,27.5 Z"
         style="fill:none;stroke:#2e3440;stroke-width:4.31890011;stroke-miterlimit:4;stroke-dasharray:none;stroke-opacity:1" />
    </g>
    <path
       inkscape:connector-curvature="0"
       id="Fill-12"
       class="st2"
       d="m 130.63087,71.062586 h -37.900001 -2.7 -38 l 7.1,40.000004 32.2,-0.3 32.200001,0.3 z"
       style="fill:#ffffff;fill-opacity:1;stroke:#ffffff;stroke-opacity:1" />
    <path
       inkscape:connector-curvature="0"
       id="Stroke-13"
       class="st3"
       d="m 130.63087,71.062586 h -37.900001 -2.7 -38 l 7.1,40.000004 32.2,-0.3 32.200001,0.3 z"
       style="fill:none;stroke:#2e3440;stroke-width:4.31899977;stroke-miterlimit:4;stroke-dasharray:none;stroke-opacity:1" />
    <circle
       id="Oval"
       class="st5"
       cx="22.730869"
       cy="56.462585"
       r="8.3000002"
       style="fill:#eeeeee;fill-opacity:1" />
    <circle
       id="Oval_1_"
       class="st6"
       cx="145.93086"
       cy="91.962585"
       r="5.5999999"
       style="fill:#eeeeee;fill-opacity:1" />
    <circle
       id="Oval_2_"
       class="st7"
       cx="41.530869"
       cy="123.96259"
       r="5.5999999"
       style="fill:#173f4f;fill-opacity:1" />
    <g
       id="g4657"
       transform="translate(10.930869,1.1625862)"
       style="fill:#2e3440;fill-opacity:1">
      <path
         inkscape:connector-curvature="0"
         d="m 174,41.6 c 0.4,-1.5 1,-2.5 2,-3 1,-0.5 2,-0.8 3,-0.7 1,0.1 1.9,0.4 2.7,1 0.8,0.6 1.2,1.3 1.2,2 0,0.3 0,0.6 -0.1,0.9 -0.1,0.3 -0.1,0.6 -0.1,0.8 3.2,-1.1 6.3,-1.9 9.4,-2.3 3.1,-0.4 5.8,-0.2 8.4,0.4 2.5,0.7 4.7,1.9 6.7,3.7 1.9,1.8 3.3,4.2 4.2,7.4 0.4,1.3 0.4,2.8 0.2,4.5 -0.2,1.7 -0.6,3.5 -1.2,5.2 -0.6,1.7 -1.3,3.3 -2.1,4.8 -0.8,1.5 -1.6,2.5 -2.5,3.2 1.9,0.6 3.6,1.6 5,3 1.4,1.4 2.5,3 3.4,4.8 0.8,1.8 1.4,3.8 1.6,5.9 0.2,2.1 0.1,4.3 -0.4,6.4 -0.5,2.1 -1.4,4 -2.9,5.8 -1.5,1.8 -3.3,3.4 -5.4,4.8 -2.1,1.4 -4.5,2.6 -7.1,3.5 -2.6,0.9 -5.3,1.6 -7.9,1.9 -2.7,0.3 -5.3,0.3 -7.9,0 -2.6,-0.3 -5,-1.1 -7,-2.2 -0.7,1.1 -1.5,1.9 -2.4,2.3 -0.9,0.4 -1.8,0.6 -2.6,0.4 -0.8,-0.2 -1.6,-0.6 -2.2,-1.4 -0.6,-0.8 -1,-1.9 -1.2,-3.3 0.5,-4.7 0.9,-9.6 1.4,-14.7 0.5,-5.1 0.9,-10.2 1.4,-15.4 0.5,-5.2 0.9,-10.3 1.3,-15.3 0.3,-4.8 0.7,-9.7 1.1,-14.4 z m 3.7,54.3 c 1.5,1 3.2,1.7 5.3,2.1 2.1,0.3 4.2,0.4 6.5,0.1 2.2,-0.3 4.4,-0.8 6.6,-1.7 2.2,-0.8 4.1,-1.9 5.8,-3.2 1.6,-1.3 2.9,-2.9 3.9,-4.7 0.9,-1.8 1.3,-3.8 1,-6 -0.1,-0.8 -0.4,-1.5 -0.9,-2.3 -0.5,-0.7 -1,-1.4 -1.7,-2 -1.3,-1.1 -3,-1.8 -5.1,-2.1 -2.2,-0.3 -4.5,-0.3 -6.9,-0.1 -2.4,0.2 -4.8,0.6 -7.1,1.2 -2.3,0.5 -4.2,1.1 -5.7,1.6 z m 2.5,-27.4 c 0.4,0 1.1,0 2.3,-0.1 1.2,-0.1 2.6,-0.2 4.1,-0.4 1.6,-0.2 3.2,-0.5 5,-1 1.7,-0.4 3.4,-1 4.9,-1.8 1.5,-0.8 2.8,-1.7 3.9,-2.8 1.1,-1.1 1.7,-2.5 1.9,-4.1 0.3,-2 0.1,-3.7 -0.5,-5 -0.6,-1.3 -1.4,-2.3 -2.6,-3.1 -1.2,-0.7 -2.5,-1.1 -4.1,-1.3 -1.5,-0.2 -3.1,-0.1 -4.7,0.1 -1.6,0.2 -3.2,0.6 -4.7,1.1 -1.5,0.5 -2.9,1.1 -4,1.8 z m 41.4,-5.8 c 0.7,-1.3 1.6,-2.2 2.6,-2.7 1,-0.5 2,-0.6 3,-0.4 1,0.2 1.8,0.8 2.5,1.7 0.7,0.9 1,2.1 1,3.6 -0.2,0.6 -0.4,1.9 -0.9,3.8 -0.4,1.9 -0.9,4 -1.4,6.5 -0.5,2.5 -1,5 -1.4,7.8 -0.5,2.7 -0.8,5.3 -0.9,7.6 -0.2,2.3 -0.1,4.2 0.1,5.8 0.2,1.6 0.8,2.4 1.6,2.6 1.5,0.3 2.9,-0.3 4.2,-1.7 1.3,-1.4 2.5,-3.3 3.6,-5.6 1.1,-2.3 2.1,-4.9 3,-7.8 0.9,-2.9 1.7,-5.6 2.3,-8.3 0.7,-2.6 1.2,-5 1.6,-7 0.4,-2 0.7,-3.4 0.9,-4.1 0.4,-1.3 0.8,-2.4 1.4,-3.2 0.6,-0.8 1.5,-1.5 2.8,-2 1.8,-0.2 3.2,0.2 4.3,1.1 1,1 1.6,2.4 1.6,4.2 -0.4,2 -0.9,4.2 -1.4,6.5 -0.5,2.3 -1,4.6 -1.5,6.8 -0.5,2.3 -0.9,4.5 -1.2,6.6 -0.3,2.1 -0.5,4 -0.6,5.7 -0.1,1.7 0,3.1 0.2,4.2 0.2,1.1 0.7,1.9 1.4,2.2 1.7,0.3 3.2,-0.6 4.5,-2.6 1.3,-2 2.8,-5.2 4.3,-9.7 0.5,-1.1 1.2,-1.9 2.1,-2.1 0.9,-0.3 1.8,-0.2 2.6,0.2 0.8,0.4 1.4,1.1 1.9,2.1 0.4,1 0.4,2.2 0,3.6 -0.3,0.9 -0.7,1.9 -1.2,3.1 -0.5,1.2 -1,2.4 -1.7,3.6 -0.7,1.3 -1.4,2.5 -2.2,3.8 -0.8,1.3 -1.6,2.4 -2.5,3.4 -1.3,1.6 -2.8,2.7 -4.4,3.3 -1.6,0.7 -3.2,0.9 -4.8,0.7 -1.6,-0.2 -3.1,-0.9 -4.5,-2 -1.4,-1.1 -2.6,-2.6 -3.4,-4.6 -0.9,1.4 -1.9,2.6 -2.9,3.8 -1,1.1 -2,2.1 -3.2,3 -1.2,0.8 -2.5,1.4 -3.9,1.8 -1.4,0.4 -3.1,0.5 -5,0.4 -1.9,-0.1 -3.4,-0.6 -4.7,-1.6 -1.2,-0.9 -2.2,-2.1 -2.9,-3.6 -0.7,-1.5 -1.1,-3.1 -1.4,-4.8 -0.3,-1.7 -0.4,-3.5 -0.4,-5.3 0,-1.8 0.1,-3.5 0.2,-5 0.1,-1.6 0.2,-2.9 0.4,-4 0.2,-1.4 0.4,-3.1 0.7,-4.9 0.3,-1.9 0.7,-3.8 1.1,-5.8 0.4,-2 0.8,-3.9 1.2,-5.7 0.7,-2 1,-3.6 1.3,-5 z"
         id="path4641"
         style="fill:#2e3440;fill-opacity:1" />
      <path
         inkscape:connector-curvature="0"
         d="m 263.2,62.7 c 0.5,-1.3 1.4,-2.1 2.6,-2.4 1.2,-0.4 2.3,-0.4 3.4,0 1.1,0.3 2,1 2.6,2 0.6,1 0.6,2.3 0,3.8 -0.4,1.3 -0.9,2.8 -1.3,4.6 -0.5,1.8 -0.9,3.8 -1.3,5.8 -0.4,2 -0.7,4.1 -0.9,6.1 -0.2,2.1 -0.3,4 -0.2,5.7 0.1,1.7 0.3,3.2 0.7,4.3 0.4,1.1 1.1,1.9 2,2.1 2,0.1 3.9,-0.3 5.7,-1.2 1.7,-0.9 3.4,-2.2 4.9,-3.8 1.5,-1.6 2.9,-3.5 4.1,-5.6 1.3,-2.1 2.4,-4.2 3.4,-6.5 1,-2.2 1.9,-4.4 2.7,-6.5 0.8,-2.1 1.5,-4.1 2.2,-5.8 0.7,-1.3 1.6,-2.2 2.6,-2.7 1,-0.5 2,-0.6 3,-0.4 1,0.2 1.8,0.8 2.5,1.7 0.7,0.9 1,2.1 1,3.6 -0.9,2.8 -1.7,5.6 -2.2,8.5 -0.5,2.9 -0.8,5.7 -1,8.5 -0.1,2 -0.1,3.9 -0.1,5.9 0,1.9 0.1,3.7 0.4,5.4 0.6,-0.3 1.4,-0.8 2.4,-1.5 1,-0.7 2.1,-1.5 3.2,-2.4 1.1,-0.9 2.2,-2 3.2,-3.1 1,-1.1 1.9,-2.3 2.6,-3.6 1,-1.3 2.1,-1.8 3.1,-1.7 1,0.1 1.9,0.5 2.6,1.3 0.7,0.8 1.1,1.7 1.3,2.8 0.2,1.1 0,2 -0.6,2.8 -1.9,3.2 -4.3,6.2 -7.1,9.1 -2.9,2.9 -6.5,5.2 -11,7.1 0.2,2.2 0.2,4.8 0,7.7 -0.2,2.9 -0.5,5.8 -1.1,8.8 -0.6,3 -1.4,5.8 -2.4,8.6 -1,2.7 -2.3,5.1 -3.9,7 -1.6,1.9 -3.5,3.3 -5.6,4.1 -2.1,0.8 -4.6,0.8 -7.4,-0.1 -2.7,-0.8 -4.7,-2.2 -5.9,-4.1 -1.2,-1.9 -1.8,-4.2 -1.8,-6.8 0,-2.6 0.5,-5.4 1.4,-8.3 1,-3 2.4,-5.9 4.1,-8.8 1.7,-2.9 3.8,-5.6 6.1,-8.2 2.3,-2.6 4.8,-4.7 7.4,-6.6 0.1,-1.3 0.1,-2.4 0.1,-3.5 0,-1.1 0,-2.2 0.1,-3.4 -1.3,1.7 -2.8,3.3 -4.6,4.8 -1.7,1.5 -3.6,2.9 -5.7,4 -2,1.1 -4.2,1.9 -6.4,2.3 -2.2,0.4 -4.5,0.3 -6.9,-0.3 -2.2,-0.6 -3.9,-1.8 -5.2,-3.4 -1.3,-1.7 -2.2,-3.7 -2.8,-6 -0.6,-2.3 -0.8,-4.9 -0.8,-7.7 0.1,-2.8 0.3,-5.6 0.7,-8.5 0.4,-2.8 1,-5.6 1.8,-8.3 0.6,-2.7 1.4,-5.1 2.3,-7.2 z m 27.4,49.2 c -1.2,1 -2.3,2.2 -3.4,3.7 -1.1,1.5 -2.1,3 -2.9,4.7 -0.9,1.6 -1.6,3.2 -2.2,4.9 -0.6,1.6 -1,3.1 -1.2,4.4 -0.2,1.3 -0.2,2.4 0,3.3 0.2,0.9 0.7,1.4 1.5,1.5 1,0.2 1.9,-0.2 2.8,-1.2 0.9,-1 1.6,-2.2 2.3,-3.8 0.7,-1.6 1.3,-3.3 1.8,-5.2 0.5,-1.9 0.9,-3.7 1.2,-5.4 0.3,-1.7 0.4,-3.2 0.5,-4.5 0,-1.3 -0.1,-2.1 -0.4,-2.4 z m 41.9,-8.1 c 0.7,-4.7 1.3,-8.9 1.6,-12.5 0.3,-3.6 0.5,-6.7 0.6,-9.4 0.1,-2.7 0,-5 -0.1,-6.8 -0.1,-1.9 -0.3,-3.4 -0.5,-4.7 -0.2,-1.3 -0.4,-2.4 -0.7,-3.2 -0.2,-0.8 -0.4,-1.5 -0.4,-2.1 -0.1,-0.8 0,-1.5 0.2,-2.1 0.2,-0.6 0.6,-1.1 1,-1.5 0.4,-0.4 1,-0.7 1.5,-1 0.6,-0.2 1.1,-0.4 1.7,-0.4 1.1,0 2,0.2 2.7,0.5 0.6,0.4 1.1,0.9 1.4,1.6 0.3,0.7 0.6,1.6 0.7,2.6 0.1,1 0.2,2.2 0.4,3.6 0.7,-1.1 1.5,-2.3 2.3,-3.5 0.9,-1.2 1.9,-2.2 3,-3.2 1.1,-0.9 2.3,-1.7 3.6,-2.3 1.3,-0.6 2.8,-0.9 4.3,-0.9 1.6,0 3.2,0.3 4.6,0.9 1.5,0.6 2.8,1.4 4,2.5 1.2,1.1 2.2,2.3 3,3.8 0.8,1.4 1.4,3 1.8,4.7 1.1,-2.2 2.4,-4.3 3.8,-6.3 1.4,-2 3.2,-3.5 5.6,-4.6 2.3,-1.1 4.5,-1.4 6.6,-0.9 2.1,0.5 3.8,1.4 5.4,2.9 1.5,1.4 2.8,3.2 3.6,5.4 0.9,2.2 1.3,4.4 1.3,6.8 0,2.7 -0.2,5.6 -0.5,8.5 -0.3,3 -0.6,5.7 -0.9,8.3 -0.3,2.6 -0.4,4.7 -0.3,6.4 0.1,1.7 0.5,2.7 1.4,2.9 1.4,0.4 2.8,-0.1 4.1,-1.3 1.3,-1.2 2.5,-2.7 3.6,-4.5 1.1,-1.8 2,-3.6 2.8,-5.4 0.8,-1.9 1.4,-3.3 1.9,-4.3 0.4,-0.9 1,-1.4 1.8,-1.6 0.8,-0.2 1.6,-0.2 2.3,0.2 0.8,0.3 1.4,0.9 1.9,1.7 0.5,0.8 0.7,1.8 0.5,2.9 -0.6,2.6 -1.5,5.1 -2.6,7.7 -1.1,2.6 -2.5,4.9 -4.1,6.9 -1.6,2.1 -3.6,3.7 -5.9,5 -2.3,1.3 -4.9,1.9 -7.9,1.9 -2,0 -3.6,-0.5 -4.9,-1.6 -1.3,-1.1 -2.3,-2.4 -3,-3.9 -0.7,-1.5 -1.2,-3.2 -1.5,-4.9 -0.3,-1.7 -0.4,-3.2 -0.4,-4.5 0,-1.9 0.1,-3.7 0.4,-5.4 0.2,-1.7 0.5,-3.4 0.8,-5 0.3,-1.6 0.6,-3.2 0.8,-4.8 0.2,-1.5 0.4,-3 0.4,-4.5 0,-2 -0.2,-3.5 -0.7,-4.7 -0.4,-1.1 -1.1,-1.7 -1.9,-1.7 -1.6,0 -3.1,1 -4.6,2.9 -1.4,1.9 -2.7,4.4 -3.9,7.4 -1.2,3 -2.2,6.4 -3.1,10.2 -0.9,3.8 -1.6,7.6 -2.2,11.3 -0.2,1.3 -0.7,2.2 -1.7,2.8 -1,0.5 -2,0.8 -3.2,0.6 -1.1,-0.1 -2.1,-0.5 -3.1,-1.3 -0.9,-0.7 -1.4,-1.7 -1.4,-2.9 0.1,-0.7 0.3,-1.9 0.5,-3.7 0.2,-1.8 0.4,-3.8 0.6,-6.1 0.2,-2.3 0.3,-4.7 0.3,-7.2 0,-2.5 -0.1,-4.8 -0.5,-6.8 -0.3,-2.1 -0.9,-3.8 -1.7,-5.1 -0.8,-1.3 -1.9,-2 -3.4,-2 -1.2,0 -2.3,0.6 -3.4,1.7 -1.1,1.1 -2.2,2.6 -3.2,4.5 -1,1.9 -1.9,4 -2.8,6.5 -0.8,2.5 -1.6,5 -2.2,7.7 -0.7,2.7 -1.2,5.5 -1.6,8.2 -0.4,2.8 -0.7,5.4 -0.9,7.8 -0.2,1.3 -0.8,2.2 -1.8,2.7 -1.1,0.5 -2.2,0.7 -3.4,0.6 -1.2,-0.1 -2.3,-0.5 -3.2,-1.2 -0.9,-0.8 -1.3,-1.7 -1.2,-2.8 z"
         id="path4643"
         style="fill:#2e3440;fill-opacity:1" />
      <path
         inkscape:connector-curvature="0"
         d="m 433.3,69 c -0.1,2.6 -0.6,5.2 -1.4,7.9 -0.8,2.6 -2.1,5 -3.7,7.1 -1.6,2.1 -3.6,3.8 -5.9,5.1 -2.3,1.3 -5,1.8 -7.9,1.6 0.1,1.6 0.2,3.2 0.5,4.7 0.3,1.5 0.8,2.8 1.5,3.9 0.7,1.1 1.7,1.8 2.9,2.3 1.2,0.4 2.7,0.4 4.5,-0.2 1.8,-0.5 3.6,-1.4 5.2,-2.6 1.7,-1.2 3.2,-2.6 4.5,-4.1 1.3,-1.6 2.5,-3.2 3.4,-5 0.9,-1.7 1.6,-3.5 2,-5.1 0.2,-0.9 0.7,-1.4 1.5,-1.6 0.8,-0.2 1.6,-0.2 2.5,0.1 0.9,0.3 1.6,0.7 2.2,1.4 0.6,0.7 0.8,1.4 0.6,2.2 -1.1,3 -2.3,5.7 -3.4,8.1 -1.1,2.3 -2.4,4.4 -3.7,6.2 -1.4,1.8 -2.9,3.3 -4.6,4.6 -1.7,1.3 -3.7,2.3 -6,3.1 -3.1,1.1 -5.9,1.6 -8.5,1.4 -2.6,-0.1 -4.9,-0.8 -6.8,-2.1 -1.9,-1.3 -3.5,-3 -4.6,-5.3 -1.1,-2.3 -1.8,-5.1 -1.9,-8.4 -0.1,-1.6 -0.1,-3.5 -0.1,-5.7 0,-2.2 0.2,-4.5 0.4,-7 0.2,-2.5 0.7,-4.9 1.3,-7.4 0.6,-2.5 1.4,-4.8 2.3,-7 1,-2.2 2.2,-4.1 3.7,-5.7 1.5,-1.6 3.3,-2.8 5.4,-3.6 1.8,-0.6 3.5,-0.9 5.2,-0.7 1.7,0.2 3.2,0.7 4.6,1.6 1.3,0.9 2.4,2.3 3.2,4 0.8,1.7 1.2,3.8 1.1,6.2 z m -9.8,-2 c -0.7,-0.5 -1.4,-0.5 -2.2,-0.1 -0.7,0.4 -1.4,1 -2,2 -0.6,0.9 -1.2,2 -1.6,3.2 -0.5,1.3 -0.9,2.5 -1.2,3.9 -0.3,1.3 -0.5,2.6 -0.7,3.8 -0.2,1.2 -0.2,2.2 -0.1,2.9 2.4,-0.5 4.3,-1.5 5.7,-3 1.4,-1.5 2.4,-3.1 2.9,-4.9 0.5,-1.7 0.7,-3.3 0.5,-4.9 -0.1,-1.5 -0.6,-2.5 -1.3,-2.9 z m 49,38.2 c -3.2,0 -5.7,-0.9 -7.6,-2.7 -1.9,-1.8 -3.1,-4.1 -3.9,-6.8 -0.7,-2.8 -1,-5.9 -0.7,-9.3 0.3,-3.4 1,-6.7 2.2,-10 1.1,-3.3 2.6,-6.3 4.5,-9 1.9,-2.8 4,-4.9 6.4,-6.3 2.4,-1.5 5,-2.1 7.9,-1.9 2.8,0.2 5.8,1.6 8.9,4.3 0.3,-0.9 1,-1.5 2,-1.7 1,-0.2 2.1,-0.1 3.1,0.3 1,0.4 1.9,1 2.5,2 0.7,0.9 0.8,2 0.4,3.3 -0.4,1.5 -0.8,3.2 -1.4,5.4 -0.6,2.2 -1.1,4.3 -1.7,6.6 -0.5,2.3 -1,4.6 -1.4,6.9 -0.4,2.3 -0.6,4.4 -0.5,6.3 0,1.9 0.3,3.4 0.8,4.6 0.5,1.2 1.4,1.9 2.7,2 1.6,0.1 3,-0.4 4.4,-1.6 1.4,-1.2 2.6,-2.6 3.7,-4.4 1.1,-1.8 2,-3.7 2.7,-5.6 0.7,-2 1.2,-3.7 1.4,-5.2 0.4,-1.4 1,-2.2 1.8,-2.4 0.9,-0.2 1.7,-0.1 2.5,0.3 0.8,0.4 1.5,1.1 2,1.9 0.5,0.9 0.6,1.7 0.2,2.5 -0.4,2.1 -1.1,4.5 -2.2,7.2 -1.1,2.7 -2.5,5.2 -4.2,7.7 -1.7,2.4 -3.6,4.5 -5.8,6.1 -2.1,1.7 -4.4,2.5 -6.9,2.5 -1.1,0 -2.2,-0.2 -3.4,-0.6 -1.2,-0.4 -2.3,-1 -3.4,-1.8 -1.1,-0.8 -2,-1.9 -2.9,-3.2 -0.8,-1.3 -1.4,-2.9 -1.8,-4.8 -0.5,0.6 -1.1,1.3 -2,2.2 -0.8,0.9 -1.8,1.7 -2.9,2.5 -1.1,0.8 -2.3,1.5 -3.6,2 -1.1,0.4 -2.4,0.7 -3.8,0.7 z m -0.1,-9.8 c 1.7,0.2 3.1,-0.2 4.4,-1.2 1.3,-0.9 2.4,-2.2 3.4,-3.8 1,-1.6 1.8,-3.4 2.5,-5.4 0.7,-2 1.2,-3.9 1.7,-5.8 0.4,-1.9 0.8,-3.5 1.1,-5.1 0.3,-1.5 0.4,-2.6 0.5,-3.3 -1.7,-1.4 -3.2,-2.1 -4.7,-2.2 -1.5,-0.1 -2.8,0.4 -4,1.2 -1.2,0.9 -2.3,2.1 -3.2,3.6 -0.9,1.6 -1.7,3.3 -2.4,5.1 -0.7,1.9 -1.1,3.7 -1.4,5.7 -0.3,2 -0.5,3.7 -0.4,5.3 0,1.6 0.3,2.9 0.7,4 0.3,1.2 1,1.8 1.8,1.9 z M 556,75.9 c -0.1,0 -0.2,0 -0.2,-0.1 -0.6,1.3 -1.3,2.2 -2.2,2.7 -0.9,0.6 -1.8,0.8 -2.8,0.7 -0.9,-0.1 -1.8,-0.6 -2.5,-1.4 -0.8,-0.8 -1.3,-1.9 -1.5,-3.3 0,-0.7 0.1,-1.5 0.2,-2.5 0.2,-1 0.3,-2 0.4,-3 0.1,-1 0,-1.8 -0.1,-2.5 -0.2,-0.7 -0.6,-1.1 -1.3,-1.2 -1.2,0.7 -2.2,1.8 -3.1,3.4 -0.9,1.6 -1.6,3.4 -2.2,5.4 -0.6,2 -1,4.1 -1.2,6.4 -0.2,2.2 -0.3,4.4 -0.2,6.5 0.1,2.1 0.3,3.9 0.8,5.5 0.4,1.6 1.1,2.8 1.9,3.5 1,1 2.2,1.6 3.4,1.8 1.3,0.2 2.6,0.2 3.9,-0.1 1.1,-0.2 2.5,-0.6 3.9,-1.2 1.5,-0.6 2.9,-1.4 4.4,-2.5 1.5,-1.1 2.9,-2.5 4.3,-4.2 1.4,-1.7 2.6,-3.9 3.6,-6.5 0.4,-0.8 1,-1.3 1.9,-1.4 0.9,-0.2 1.8,-0.1 2.7,0.3 0.9,0.3 1.6,0.9 2.1,1.7 0.5,0.8 0.6,1.7 0.2,2.9 -1,2.5 -2.3,4.6 -3.9,6.6 -1.6,2 -3.2,3.6 -5,5.1 -1.8,1.5 -3.6,2.7 -5.6,3.8 -1.9,1 -3.8,1.9 -5.6,2.6 -1.4,0.5 -2.9,0.9 -4.5,1.2 -1.6,0.3 -3.1,0.4 -4.7,0.2 -1.6,-0.2 -3.1,-0.6 -4.6,-1.2 -1.5,-0.7 -2.8,-1.7 -3.9,-3.1 -1.4,-1.6 -2.4,-3.6 -3.2,-6 -0.8,-2.4 -1.2,-5 -1.4,-7.7 -0.2,-2.7 -0.1,-5.5 0.2,-8.4 0.3,-2.9 0.9,-5.6 1.7,-8.2 0.8,-2.6 1.9,-4.9 3.1,-7 1.3,-2.1 2.8,-3.8 4.4,-5 2.7,-1.8 5.4,-2.7 7.9,-2.5 2.6,0.1 4.6,1.3 6.1,3.5 1.2,0.2 2.2,0.8 2.9,1.8 0.7,1 0.9,2.2 0.6,3.6 z"
         id="path4645"
         style="fill:#2e3440;fill-opacity:1" />
      <path
         inkscape:connector-curvature="0"
         d="m 589.6,59.3 c 2.4,-0.8 4.5,-0.9 6.3,-0.5 1.8,0.4 3.3,1.4 4.5,2.7 1.2,1.4 2.2,3 2.9,5 0.7,2 1.2,4.1 1.4,6.4 0.1,1 0.2,2.2 0.2,3.4 0,1.3 0,2.5 -0.1,3.8 -0.1,1.3 -0.2,2.5 -0.3,3.6 -0.1,1.1 -0.3,2.2 -0.5,3.1 1.3,-0.1 2.4,-0.2 3.4,-0.5 1,-0.3 1.9,-0.6 2.7,-1 0.8,-0.4 1.6,-0.8 2.4,-1.3 0.8,-0.5 1.5,-0.9 2.3,-1.3 1,-0.5 1.8,-0.6 2.5,-0.2 0.7,0.4 1.1,1 1.3,1.8 0.2,0.8 0.3,1.6 0.2,2.5 -0.1,0.9 -0.5,1.6 -1.1,2.2 -2.5,2.3 -5.2,4 -8.2,5 -3,1 -6,1.5 -9.1,1.5 -2,3.6 -4.6,6.3 -7.8,8.2 -3.2,1.9 -6.7,2.8 -10.4,2.9 -3.5,0.1 -6.4,-0.7 -8.8,-2.1 -2.4,-1.5 -4.3,-3.4 -5.7,-5.7 -1.4,-2.3 -2.3,-5 -2.8,-8 -0.4,-3 -0.4,-6 0,-9.1 0.4,-3.1 1.3,-6 2.7,-8.9 1.3,-2.9 3,-5.4 5.1,-7.6 2.1,-2.1 4.6,-3.8 7.4,-4.9 2.7,-1.1 5.9,-1.5 9.5,-1 z m -5.7,9 c -1.7,0.4 -3.2,1.3 -4.6,2.8 -1.4,1.5 -2.6,3.3 -3.6,5.3 -1,2.1 -1.7,4.3 -2.1,6.7 -0.4,2.4 -0.5,4.7 -0.1,6.8 0.3,2.1 1.1,4 2.4,5.5 1.3,1.6 3.1,2.6 5.4,3.1 0.8,0.2 1.8,0.1 2.8,-0.2 1,-0.3 2.1,-0.8 3.1,-1.4 1,-0.6 1.9,-1.4 2.7,-2.2 0.8,-0.9 1.4,-1.7 1.8,-2.6 -1.5,-0.9 -2.7,-2 -3.7,-3.2 -1,-1.3 -1.9,-2.6 -2.6,-4.1 -1.1,-2.5 -1.8,-5.2 -2,-8 -0.3,-3.1 -0.1,-5.8 0.5,-8.5 z m 9.7,0.4 c -1.5,0.9 -2.3,2.1 -2.5,3.7 -0.2,1.6 0,3.2 0.4,4.9 0.5,1.6 1.1,3.1 2,4.4 0.8,1.3 1.5,2.1 2.1,2.4 0.3,-0.3 0.6,-0.9 0.7,-1.8 0.2,-1 0.3,-2.1 0.4,-3.3 0.1,-1.3 0,-2.6 -0.1,-3.9 -0.1,-1.4 -0.3,-2.6 -0.5,-3.6 -0.3,-1 -0.6,-1.8 -1,-2.4 -0.4,-0.6 -0.9,-0.7 -1.5,-0.4 z"
         id="path4647"
         style="fill:#2e3440;fill-opacity:1" />
      <path
         inkscape:connector-curvature="0"
         d="m 614.5,41.1 c 0.7,-1.3 1.7,-2.1 2.8,-2.5 1.1,-0.4 2.2,-0.4 3.2,-0.1 1,0.3 1.8,0.9 2.4,1.7 0.6,0.8 0.8,1.8 0.5,2.9 l -4.9,52 c 2.2,-0.2 4.4,-0.6 6.6,-1.4 2.1,-0.8 4.2,-1.7 6.2,-2.9 2,-1.2 3.9,-2.5 5.7,-4 1.8,-1.5 3.5,-2.9 5,-4.5 0.8,-0.4 1.6,-0.3 2.2,0.5 0.7,0.7 1.1,1.7 1.4,2.8 0.3,1.1 0.3,2.3 0.2,3.5 -0.2,1.2 -0.7,2.1 -1.5,2.6 -1.1,0.8 -2.3,1.8 -3.7,2.8 -1.4,1 -2.7,2 -4.1,2.9 -1.4,0.9 -2.7,1.7 -4,2.5 -1.3,0.7 -2.4,1.2 -3.4,1.5 1.6,1.7 2.8,3.9 3.7,6.6 0.9,2.7 1.4,5.5 1.6,8.5 0.2,3 0.1,6 -0.4,9 -0.5,3 -1.3,5.6 -2.5,7.9 -1.2,2.3 -2.8,4.1 -4.7,5.4 -1.9,1.3 -4.2,1.8 -6.9,1.4 -2.5,-0.3 -4.5,-1.3 -6.1,-2.9 -1.5,-1.6 -2.7,-3.6 -3.6,-5.9 -0.8,-2.3 -1.4,-4.9 -1.6,-7.8 -0.3,-2.8 -0.4,-5.7 -0.3,-8.5 0.1,-2.8 0.2,-5.5 0.4,-8 0.2,-2.5 0.3,-4.7 0.4,-6.4 0,-1 0.1,-2.9 0.3,-5.6 0.2,-2.8 0.5,-6 0.7,-9.8 0.3,-3.8 0.6,-7.8 1,-12.1 0.4,-4.3 0.8,-8.5 1.2,-12.6 0.4,-4.1 0.8,-7.8 1.2,-11.3 0.3,-3.5 0.7,-6.3 1,-8.2 z m 5.8,88.7 c 1.4,-0.1 2.6,-0.7 3.5,-1.9 0.9,-1.2 1.6,-2.7 2.1,-4.5 0.4,-1.8 0.6,-3.7 0.5,-5.8 -0.1,-2.1 -0.5,-4.1 -1.1,-5.9 -0.6,-1.8 -1.5,-3.4 -2.7,-4.7 -1.2,-1.3 -2.6,-2.1 -4.4,-2.3 -0.1,0.9 -0.2,2.1 -0.4,3.8 -0.2,1.6 -0.3,3.4 -0.5,5.2 -0.1,1.9 -0.2,3.8 -0.2,5.7 0,1.9 0.1,3.7 0.2,5.2 0.2,1.6 0.5,2.8 1,3.8 0.4,1 1.1,1.5 2,1.4 z"
         id="path4649"
         style="fill:#2e3440;fill-opacity:1" />
      <path
         inkscape:connector-curvature="0"
         d="m 642.9,41.1 c 0.7,-1.3 1.7,-2.1 2.8,-2.5 1.1,-0.4 2.2,-0.4 3.2,-0.1 1,0.3 1.8,0.9 2.4,1.7 0.6,0.8 0.8,1.8 0.5,2.9 l -4.9,52 c 2.2,-0.2 4.4,-0.6 6.6,-1.4 2.2,-0.8 4.2,-1.7 6.2,-2.9 2,-1.2 3.9,-2.5 5.7,-4 1.8,-1.5 3.5,-2.9 5,-4.5 0.8,-0.4 1.6,-0.3 2.2,0.5 0.7,0.7 1.1,1.7 1.4,2.8 0.3,1.1 0.3,2.3 0.2,3.5 -0.2,1.2 -0.7,2.1 -1.5,2.6 -1.1,0.8 -2.3,1.8 -3.7,2.8 -1.4,1 -2.7,2 -4.1,2.9 -1.4,0.9 -2.7,1.7 -4,2.5 -1.3,0.7 -2.4,1.2 -3.4,1.5 1.6,1.7 2.8,3.9 3.7,6.6 0.9,2.7 1.4,5.5 1.6,8.5 0.2,3 0.1,6 -0.4,9 -0.5,3 -1.3,5.6 -2.5,7.9 -1.2,2.3 -2.8,4.1 -4.7,5.4 -1.9,1.3 -4.2,1.8 -6.9,1.4 -2.5,-0.3 -4.5,-1.3 -6.1,-2.9 -1.5,-1.6 -2.7,-3.6 -3.6,-5.9 -0.8,-2.3 -1.4,-4.9 -1.6,-7.8 -0.3,-2.8 -0.4,-5.7 -0.3,-8.5 0.1,-2.8 0.2,-5.5 0.4,-8 0.2,-2.5 0.3,-4.7 0.4,-6.4 0,-1 0.1,-2.9 0.3,-5.6 0.2,-2.8 0.5,-6 0.7,-9.8 0.3,-3.8 0.6,-7.8 1,-12.1 0.4,-4.3 0.8,-8.5 1.2,-12.6 0.4,-4.1 0.8,-7.8 1.2,-11.3 0.2,-3.5 0.6,-6.3 1,-8.2 z m 5.7,88.7 c 1.4,-0.1 2.6,-0.7 3.5,-1.9 0.9,-1.2 1.6,-2.7 2.1,-4.5 0.4,-1.8 0.6,-3.7 0.5,-5.8 -0.1,-2.1 -0.5,-4.1 -1.1,-5.9 -0.6,-1.8 -1.5,-3.4 -2.7,-4.7 -1.2,-1.3 -2.7,-2.1 -4.4,-2.3 -0.1,0.9 -0.2,2.1 -0.4,3.8 -0.2,1.6 -0.3,3.4 -0.5,5.2 -0.2,1.8 -0.2,3.8 -0.2,5.7 0,1.9 0.1,3.7 0.2,5.2 0.1,1.5 0.5,2.8 1,3.8 0.4,1 1.1,1.5 2,1.4 z"
         id="path4651"
         style="fill:#2e3440;fill-opacity:1" />
      <path
         inkscape:connector-curvature="0"
         d="m 694,69 c -0.1,2.6 -0.6,5.2 -1.4,7.9 -0.8,2.6 -2.1,5 -3.7,7.1 -1.6,2.1 -3.6,3.8 -5.9,5.1 -2.3,1.3 -5,1.8 -7.9,1.6 0.1,1.6 0.2,3.2 0.5,4.7 0.3,1.5 0.8,2.8 1.5,3.9 0.7,1.1 1.7,1.8 2.9,2.3 1.2,0.4 2.7,0.4 4.5,-0.2 1.8,-0.5 3.6,-1.4 5.2,-2.6 1.7,-1.2 3.2,-2.6 4.5,-4.1 1.3,-1.6 2.5,-3.2 3.4,-5 0.9,-1.7 1.6,-3.5 2,-5.1 0.2,-0.9 0.7,-1.4 1.5,-1.6 0.8,-0.2 1.6,-0.2 2.5,0.1 0.9,0.3 1.6,0.7 2.2,1.4 0.6,0.7 0.8,1.4 0.6,2.2 -1.1,3 -2.3,5.7 -3.4,8.1 -1.1,2.3 -2.4,4.4 -3.7,6.2 -1.4,1.8 -2.9,3.3 -4.6,4.6 -1.7,1.3 -3.7,2.3 -6,3.1 -3.1,1.1 -5.9,1.6 -8.5,1.4 -2.6,-0.1 -4.9,-0.8 -6.8,-2.1 -1.9,-1.3 -3.5,-3 -4.6,-5.3 -1.1,-2.3 -1.8,-5.1 -1.9,-8.4 -0.1,-1.6 -0.1,-3.5 -0.1,-5.7 0,-2.2 0.2,-4.5 0.4,-7 0.2,-2.5 0.7,-4.9 1.3,-7.4 0.6,-2.5 1.4,-4.8 2.3,-7 1,-2.2 2.2,-4.1 3.7,-5.7 1.5,-1.6 3.3,-2.8 5.4,-3.6 1.8,-0.6 3.5,-0.9 5.2,-0.7 1.7,0.2 3.2,0.7 4.6,1.6 1.3,0.9 2.4,2.3 3.2,4 0.8,1.7 1.2,3.8 1.1,6.2 z m -9.9,-2 c -0.7,-0.5 -1.4,-0.5 -2.2,-0.1 -0.7,0.4 -1.4,1 -2,2 -0.6,0.9 -1.2,2 -1.6,3.2 -0.5,1.3 -0.9,2.5 -1.2,3.9 -0.3,1.3 -0.5,2.6 -0.7,3.8 -0.2,1.2 -0.2,2.2 -0.1,2.9 2.4,-0.5 4.3,-1.5 5.7,-3 1.4,-1.5 2.4,-3.1 2.9,-4.9 0.5,-1.7 0.7,-3.3 0.5,-4.9 0,-1.5 -0.5,-2.5 -1.3,-2.9 z"
         id="path4653"
         style="fill:#2e3440;fill-opacity:1" />
      <path
         inkscape:connector-curvature="0"
         d="m 725.6,69 c -0.1,2.6 -0.6,5.2 -1.4,7.9 -0.8,2.6 -2.1,5 -3.7,7.1 -1.6,2.1 -3.6,3.8 -5.9,5.1 -2.3,1.3 -5,1.8 -7.9,1.6 0.1,1.6 0.2,3.2 0.5,4.7 0.3,1.5 0.8,2.8 1.5,3.9 0.7,1.1 1.7,1.8 2.9,2.3 1.2,0.4 2.7,0.4 4.5,-0.2 1.8,-0.5 3.6,-1.4 5.2,-2.6 1.7,-1.2 3.2,-2.6 4.5,-4.1 1.3,-1.6 2.5,-3.2 3.4,-5 0.9,-1.7 1.6,-3.5 2,-5.1 0.2,-0.9 0.7,-1.4 1.5,-1.6 0.8,-0.2 1.6,-0.2 2.5,0.1 0.9,0.3 1.6,0.7 2.2,1.4 0.6,0.7 0.8,1.4 0.6,2.2 -1.1,3 -2.3,5.7 -3.4,8.1 -1.1,2.3 -2.4,4.4 -3.7,6.2 -1.4,1.8 -2.9,3.3 -4.6,4.6 -1.7,1.3 -3.7,2.3 -6,3.1 -3.1,1.1 -5.9,1.6 -8.5,1.4 -2.6,-0.1 -4.9,-0.8 -6.8,-2.1 -1.9,-1.3 -3.5,-3 -4.6,-5.3 -1.1,-2.3 -1.8,-5.1 -1.9,-8.4 -0.1,-1.6 -0.1,-3.5 -0.1,-5.7 0,-2.2 0.2,-4.5 0.4,-7 0.2,-2.5 0.7,-4.9 1.3,-7.4 0.6,-2.5 1.4,-4.8 2.3,-7 1,-2.2 2.2,-4.1 3.7,-5.7 1.5,-1.6 3.3,-2.8 5.4,-3.6 1.8,-0.6 3.5,-0.9 5.2,-0.7 1.7,0.2 3.2,0.7 4.6,1.6 1.3,0.9 2.4,2.3 3.2,4 0.7,1.7 1.1,3.8 1.1,6.2 z m -9.9,-2 c -0.7,-0.5 -1.4,-0.5 -2.2,-0.1 -0.7,0.4 -1.4,1 -2,2 -0.6,0.9 -1.2,2 -1.6,3.2 -0.5,1.3 -0.9,2.5 -1.2,3.9 -0.3,1.3 -0.5,2.6 -0.7,3.8 -0.2,1.2 -0.2,2.2 -0.1,2.9 2.4,-0.5 4.3,-1.5 5.7,-3 1.4,-1.5 2.4,-3.1 2.9,-4.9 0.5,-1.7 0.7,-3.3 0.5,-4.9 0,-1.5 -0.5,-2.5 -1.3,-2.9 z"
         id="path4655"
         style="fill:#2e3440;fill-opacity:1" />
    </g>
    <g
       id="g4612"
       transform="translate(10.930869,15.162586)">
    </g>
  </g>
</svg>
